<?xml version="1.0" encoding="UTF-8"?>
<!DOCTYPE svg PUBLIC "-//W3C//DTD SVG 1.1//EN" "http://www.w3.org/Graphics/SVG/1.1/DTD/svg11.dtd">
<!-- Creator: CorelDRAW -->
<svg xmlns="http://www.w3.org/2000/svg" xml:space="preserve" width="0.803118in" height="0.784189in" version="1.1" style="shape-rendering:geometricPrecision; text-rendering:geometricPrecision; image-rendering:optimizeQuality; fill-rule:evenodd; clip-rule:evenodd"
viewBox="0 0 209.71 204.77"
 xmlns:xlink="http://www.w3.org/1999/xlink">
 <defs>
  <style type="text/css">
   <![CDATA[
    .fil0 {fill:#EAB80B}
   ]]>
  </style>
 </defs>
 <g id="Camada_x0020_1">
  <metadata id="CorelCorpID_0Corel-Layer"/>
  <path class="fil0" d="M137.82 125.3c6.09,0 4.02,-5.42 11.48,-17.73 3.92,-6.47 8.57,-12.55 16.45,-14.36l-18.62 41.26 -57.41 1.53c-11.24,0 -15.54,-1.53 -26.38,-1.53l-18.62 -41.26c19.61,4.5 19.7,32.09 27.93,32.09 9.33,0 38,-16.85 26.03,-39.38 -2.04,-3.85 -1.35,-3.75 -5.86,-4.94 0.61,-7.21 7.51,-15.1 12.41,-18.33 5.62,3.71 8.67,9.77 12.41,15.28 -3.55,5.21 -5.81,6.11 -7.93,13.72 -5.27,18.99 19.02,33.65 28.1,33.65zm-71.38 -35.14c0,24.88 32.66,10.13 18.62,0 -6.24,1.64 -4.49,0.41 -4.66,7.64 -6.33,-0.52 -6.21,-0.25 -6.21,-7.64 0,-7.13 20.17,-12.51 20.17,7.64 0,10.49 -12.42,19.66 -21.72,19.87 -0.86,-10.1 -15.65,-33.62 -37.24,-33.62 0.18,7.9 15.05,36.09 19.06,45.4 2,4.64 3.38,12.66 8.86,12.66l80.69 0c9.13,0 10.25,-8.28 18.17,-26.41 3.49,-7.98 12.15,-23.28 12.86,-31.65 -21.59,0 -36.38,23.51 -37.24,33.62 -23.14,-0.51 -30.1,-33.62 -10.86,-33.62 9.37,0 9.31,4.14 9.31,9.17 0,4.62 -1.83,4.22 -6.21,4.58 -0.51,-22.67 -17.76,6.11 1.55,6.11 15.59,0 16.58,-20.92 -0.03,-25.95 -18.07,-5.47 -7.73,-12.21 -26.35,-24.48 -10.95,7.22 -12.94,14.54 -17.06,19.87 -4.02,5.19 -21.73,5.23 -21.73,16.81zm-60.51 13.75c0,-37.22 22.5,-72.22 54.79,-88.15 81.04,-40.01 180.47,43.84 129.38,136.57 -31.25,56.72 -122.59,65.55 -165.58,6.63 -10.01,-13.72 -18.58,-37.21 -18.58,-55.05zm88.44 100.85c24.36,0 37.3,0.83 60.01,-11.19 48.2,-25.52 68.11,-80.65 46.86,-132.26 -28.79,-69.94 -129.53,-82.72 -176.5,-24.44 -63.58,78.88 8.36,167.89 69.63,167.89zm-77.58 -105.43c0,72.89 74.86,111.13 133.4,77.89 8.71,-4.95 31.21,-20.69 26.42,-30.52 -9.74,5.07 -38.52,55.69 -104.66,29.72 -57.86,-22.71 -72.65,-112.95 0.15,-147.92 24.45,-11.75 58.78,-7.79 79.28,7.05 4.53,3.28 6.78,6.75 12.82,7.24 -1.27,-15.04 -57.63,-44.9 -108.56,-12.17 -22.17,14.25 -38.85,42.71 -38.85,68.7zm81.89 19.52l6.21 6.79 6.9 -6.11 -6.21 -6.79 -6.9 6.11zm-44.65 -37.86c8.89,13.08 12.44,-4.58 6.21,-4.58 -3.87,0 -4.87,2.15 -6.21,4.58zm93.1 0c0,4.09 3.63,8.35 9.31,0 -5.92,-8.71 -9.31,-3.65 -9.31,0z"/>
 </g>
</svg>
3.997,0 319.033,116.99 319.033,343.956l0 21.9952c0,232.005 -1.29997e+002,342.05 -3.13994e+002,342.05 -1.83997e+002,0 -3.19033e+002,-1.16037e+002 -3.19033e+002,-3.43003e+002l0 -2.30167e+001c0,-2.30031e+002 129.997,-3.41982e+002 313.994,-3.41982e+002zm2.99625 108.001c-1.1699e+002,0 -1.66973e+002,81.9884 -1.66973e+002,235.002l0 34.9336c0,136.057 55.0221,223.017 163.977,223.017 122.029,-9.53354e-001 170.037,-8.49847e+001 170.037,-2.35955e+002l0 -3.40483e+001c0,-1.35989e+002 -5.59755e+001,-2.22949e+002 -1.67041e+002,-2.22949e+002z"/>
  </font>
  <style type="text/css">
   <![CDATA[
    @font-face { font-family:"Apple SD Gothic Neo";font-variant:normal;font-weight:800;src:url("#FontID0") format(svg)}
    .fil1 {fill:#6D4B2F}
    .fil0 {fill:#EAB80B}
    .fnt0 {font-weight:800;font-size:57.81px;font-family:'Apple SD Gothic Neo'}
   ]]>
  </style>
   <clipPath id="id0">
    <rect x="620.1" y="2840.67" width="7277.78" height="1777.78"/>
   </clipPath>
 </defs>
 <g id="Camada_x0020_1">
  <metadata id="CorelCorpID_0Corel-Layer"/>
  <g style="clip-path:url(#id0)">
   <image x="620.1" y="2840.67" width="7277.78" height="1777.78" xlink:href="CORREIA LOG_Images/CORREIA LOG_ImgID1.png"/>
  </g>
  <path class="fil0" d="M3123.85 2187.48c23.3,0 15.41,-20.77 43.96,-67.9 15.03,-24.8 32.81,-48.06 63,-54.99l-71.3 157.99 -219.87 5.85c-43.03,0 -59.52,-5.85 -101.02,-5.85l-71.3 -157.99c75.09,17.23 75.44,122.89 106.96,122.89 35.71,0 145.52,-64.54 99.69,-150.8 -7.83,-14.73 -5.15,-14.35 -22.44,-18.9 2.33,-27.6 28.75,-57.83 47.54,-70.21 21.54,14.2 33.19,37.41 47.54,58.52 -13.58,19.96 -22.25,23.39 -30.35,52.54 -20.18,72.72 72.85,128.85 107.59,128.85zm-273.34 -134.58c0,95.29 125.07,38.78 71.31,0 -23.88,6.27 -17.2,1.59 -17.83,29.25 -24.23,-1.98 -23.77,-0.97 -23.77,-29.25 0,-27.3 77.25,-47.89 77.25,29.25 0,40.19 -47.55,75.3 -83.19,76.08 -3.28,-38.7 -59.94,-128.74 -142.62,-128.74 0.69,30.26 57.64,138.2 73.01,173.87 7.65,17.77 12.93,48.48 33.95,48.48l309 0c34.96,0 39.25,-31.71 69.59,-101.15 13.37,-30.58 46.54,-89.13 49.25,-121.2 -82.67,0 -139.34,90.04 -142.62,128.74 -88.61,-1.94 -115.28,-128.74 -41.59,-128.74 35.89,0 35.65,15.86 35.65,35.11 0,17.69 -6.99,16.18 -23.77,17.56 -1.96,-86.83 -68.02,23.41 5.95,23.41 59.71,0 63.49,-80.11 -0.13,-99.36 -69.2,-20.94 -29.62,-46.74 -100.89,-93.75 -41.95,27.67 -49.54,55.69 -65.35,76.09 -15.41,19.89 -83.21,20.02 -83.21,64.36zm-231.74 52.66c0,-142.53 86.18,-276.56 209.81,-337.59 310.33,-153.21 691.12,167.89 495.46,523.02 -119.68,217.22 -469.48,251.04 -634.11,25.38 -38.32,-52.52 -71.15,-142.5 -71.15,-210.81zm338.7 386.22c93.3,0 142.86,3.19 229.83,-42.85 184.57,-97.71 260.83,-308.86 179.46,-506.51 -110.26,-267.84 -496.05,-316.76 -675.93,-93.58 -243.48,302.08 32.02,642.94 266.64,642.94zm-297.11 -403.77c0,279.13 286.67,425.6 510.86,298.27 33.37,-18.95 119.54,-79.23 101.19,-116.87 -37.29,19.43 -147.5,213.27 -400.8,113.82 -221.58,-86.98 -278.21,-432.57 0.58,-566.46 93.64,-44.98 225.09,-29.84 303.59,27 17.33,12.56 25.98,25.84 49.09,27.73 -4.86,-57.59 -220.71,-171.95 -415.74,-46.59 -84.89,54.56 -148.77,163.57 -148.77,263.11zm313.62 74.77l23.76 26.01 26.41 -23.41 -23.76 -26 -26.41 23.41zm-171 -145c34.06,50.09 47.64,-17.55 23.76,-17.55 -14.84,0 -18.64,8.23 -23.76,17.55zm356.54 0c0,15.65 13.9,31.99 35.65,0 -22.69,-33.36 -35.65,-14 -35.65,0z"/>
  <g id="_105553729982656">
   <path class="fil1" d="M4114 2136.34c0,-11.93 2.27,-8.33 4.48,-17.66l31.38 8.83c-11.18,16.44 -35.87,23.35 -35.87,8.83zm-399.03 -206.6l2.24 -25.19 8.97 0c-0.34,14.88 -6.45,12.22 -6.67,24.22 -0.91,50.64 85.78,73.7 124.6,82.61 55.31,12.69 49.5,7.03 63.31,-10.03 75.09,-92.73 200.16,-101.63 216.07,-53.06 3.97,12.11 -0.19,23.16 -8.57,32.22 -38.76,41.91 -126.95,45.45 -204.92,45.45 -9.29,17.28 -32.6,44.02 -49.33,77.25 -14.22,28.23 -27.47,53.46 -38.41,85.8 -36.64,108.28 -9.7,127.5 88.48,73.89 43.26,-23.63 148.34,-113.1 191.63,-151.25 11.24,-9.91 4.22,-8.55 8.65,-22.39 8.06,-25.2 45.18,-31.59 54.74,-8.29 2.87,7 3.53,19.33 -0.2,26.38l-0.01 -10.74c-8.45,-11.74 -4.89,-27.11 -26.32,-24.01 -12.98,1.88 -21.78,11.96 -22.99,26.21 6.96,-4.59 8.39,-6.71 17.93,-2.2 -2.37,8.75 -6.59,8.91 -8.96,17.66 10.89,2.5 18.98,9.55 31.38,4.75l13.44 6.29c-17.2,6.59 -8.64,-1.63 -21.83,11.61 -4.44,4.45 -10.52,9.41 -17.6,11.48 -29.72,8.73 -27.81,-17.69 -27.81,-29.71 -65.07,55.48 -180.11,162.48 -253.93,176 -41.29,7.57 -53.96,-7.24 -54.99,-45.96 -1.03,-38.64 29.38,-123.63 52.07,-160.02l41.65 -64.95c-17.08,0 -49.31,-7.03 -63.26,-10.56 -48.52,-12.28 -105.57,-33.41 -109.36,-83.46zm201.76 89.6c10.91,-16.04 45.47,-48.54 60.19,-59.93 40.94,-31.69 137.08,-54.06 137.08,-1.88 0,27.97 -50.23,46.3 -77.14,52.07 -41.29,8.85 -70.41,9.74 -120.13,9.74zm856.33 105.96c0,-50.42 63.13,-52.53 21.9,-11.55 -7.34,7.3 -8.45,11.25 -21.9,11.55zm-246.59 -15.45c7.37,-13.71 18.85,-27.83 35.87,-24.28 -0.44,19.47 -20.82,20.83 -35.87,24.28zm-130.02 -33.11c0,-15.3 -3.59,-23.07 11.21,-24.28 0,15.59 -1.41,17.82 -11.21,24.28zm-143.47 2.21c0,-14.87 -2.95,-25.33 11.21,-26.49 4.85,9.95 -3.95,21.71 -11.21,26.49zm-80.69 41.94l11.2 0.01c19.75,7.25 54.02,-21.46 65.01,-28.71 0,23.71 -17.02,36.47 -24.62,68.6 -3.28,13.9 -2.13,14.46 4.44,24.12 22.38,0 33.57,-5.99 48.04,-14.51 32.15,-18.93 46.5,-27.03 78.46,-50.77 12.91,-9.59 24.44,-19.06 37.15,-27.44 0,26.39 -33.29,54.05 -24.66,90.51 14.55,6.87 24.75,1.17 38.87,-5.87 52.92,-26.39 80.22,-52.2 100.11,-62.57 -0.37,16.36 -6.17,31.95 8.37,42.54 27.29,19.88 95.06,-31.64 114.93,-44.74 -3.24,13.69 -11.93,34.71 -1.44,47.77 21.93,27.32 123.14,-43.38 131.46,-45.57 2.68,31.74 33.31,9.5 35.87,8.83 -2.11,8.93 -13.92,40.91 15.62,42.21 30.37,1.33 91.18,-33.54 116.04,-51.64 3.95,-2.88 27.49,-24.06 8.33,-14.04 -22.47,11.76 -68.43,58.79 -131.02,58.79 -5.39,-22.77 16.99,-52.77 29.14,-70.64 -10.28,-4.86 -11.33,-5.83 -20.18,0 -10.6,-15.59 -32.34,-10.44 -43.45,3.56 -6.76,8.52 -2.89,8.63 -15.73,17.62 -31.48,22.03 -75.21,49.46 -115.67,49.46 -5.27,-22.28 5.96,-46.41 17.93,-64.02 -21.6,-11.26 -11.99,6.61 -74.07,41.85 -13.07,7.42 -59.28,33.92 -63.85,5.63 -1.11,-6.86 1.81,-18.63 3.41,-25.4 23.41,-1.92 51.14,-8.65 44.83,-35.32 -35.8,-8.22 -39.07,9.99 -70.44,32.18 -27.93,19.76 -85.02,64.95 -120.11,64.95 0,-26.26 27.38,-54.59 29.06,-68.73 1.37,-11.55 -4.53,-17.3 -6.64,-26.2 20.74,-13.68 19.01,-37.88 4.48,-39.74 -19.59,4.5 -22.11,24.17 -13.45,41.94 -5.42,3.57 -11.67,9.19 -17.61,13.57l-92.94 63c-88.95,52.52 -22.24,-30.67 -16.87,-51.81 2.38,-9.36 -3.86,-15.4 -4.84,-26.96 9.12,-13.41 13.45,-9.14 13.45,-33.11 -29.32,-19.33 -32.49,19.26 -24.66,35.32 -15.46,10.2 -19.81,20.58 -50.71,29.52 -8.02,2.32 -14.83,2.57 -23.25,5.8zm475.23 -52.98l4.81 6.36c26.37,-4.87 7.07,-28.48 -4.81,-6.36zm-490.94 51.11c25.2,8.09 22.41,8.56 26.9,1.88l-22.42 -0.01c5.24,-10.76 3.48,-12.29 4.47,-24.28 -5.55,0 -4.13,0.55 -8.96,22.41z"/>
   <path class="fil1" d="M4161.08 2224.64c121.42,0 102.89,239.44 -14.33,208.38 -82.67,-21.91 -75.82,-208.38 14.33,-208.38zm381.09 28.7l8.96 0c2.87,-34.01 28.83,-28.7 51.56,-28.7l0 189.85c0,27.86 -14.76,13.99 -22.42,24.28 2.63,3.72 0.32,4.42 6.72,4.42l62.77 0c6.31,0 4.15,-0.96 6.72,-4.42 -7.07,-9.51 -22.42,-0.2 -22.42,-19.87l0 -194.27c29.14,0 38.2,-4.32 48.44,11.9 5.45,8.64 2.35,13.6 9.84,19.01 7.14,-6.67 -0.19,-31.06 -2.24,-39.74l-141.23 0c-2.8,11.81 -3.93,25.69 -6.72,37.53zm181.58 -28.7c8.23,0 22.42,-1.48 22.42,8.83 0,34.46 3.13,175.99 -2.24,198.68 -12.75,2.93 -16.91,-1.11 -17.93,11.04l136.74 0c1.2,-14.15 15.22,-41.22 11.21,-50.78 -16.77,4.41 -8.83,41.94 -47.07,41.94l-47.07 0 0 -200.89c0,-10.31 14.19,-8.83 22.42,-8.83l0 -8.83 -78.46 0 0 8.83zm362.7 28.64c13.78,-1.03 6.78,-4.07 13.05,-16.23 8.35,-16.18 22.35,-12.41 45.69,-12.41 0,35.33 3.17,184.67 -2.24,207.51 -12.75,2.93 -16.91,-1.11 -17.93,11.04l73.98 0c-1.72,-20.39 -20.18,3.4 -20.18,-22.07l0 -196.48c26.92,0 38.15,-3.9 46.74,11.37 6.25,11.1 0.91,16.28 13.79,17.33 0,-7.7 -1.64,-37.53 -11.21,-37.53l-136.74 0 -4.94 37.46zm-781.91 -28.64l20.18 2.21c7.52,31.81 0.31,108.06 2.22,147.93 4.06,85.37 144.41,97.7 164.35,-1.56 5.59,-27.85 -4.72,-128.87 3.8,-146.37 13.15,-6.21 18.84,4.72 20.18,-11.04l-53.8 0 0 8.83c9.39,0 22.42,-2.46 22.42,15.46l0 112.58c0,76.7 -73.91,96.46 -107.99,66.61 -4.92,-4.31 -15.31,-20.63 -15.31,-29.07l0 -156.74c0,-11.06 12.5,-8.83 22.42,-8.83l0 -8.83 -78.46 0 0 8.83zm594.06 -4.41c7.59,10.2 24.66,-2.29 24.66,19.87l0 178.81c0,25.32 -20.78,4.9 -22.42,24.28l161.41 0c1.51,-17.9 11.21,-32.06 11.21,-50.78l-6.73 0c-0.85,10.02 -7.36,20.31 -12.44,27.48 -5.94,8.39 -14.5,14.46 -27.91,14.46l-71.73 0 0 -110.38c29.56,0 62.34,-5.33 70.94,9.61 7.09,12.31 -3.18,15.64 12,16.88l0 -61.81 -6.72 0c-7.22,30.55 -7.8,28.7 -69.49,28.7 -5.17,0 -6.72,-1.54 -6.72,-6.62l0 -86.1 76.22 0c8.62,0 14.63,5.24 18.41,10.57 8.86,12.48 0.44,14.03 10.73,18.13 4.75,-9.74 -1.96,-24.98 -2.24,-37.53l-152.44 0c-4.05,0 -6.15,1.1 -6.72,4.41zm-845.13 110.38c0,121.04 160.83,152.61 212.25,52.28 22.81,-44.51 14.29,-100.99 -23.33,-136.77 -44.63,-42.45 -117.67,-36.63 -157.02,5.52 -16.45,17.61 -31.89,45.98 -31.89,78.97z"/>
   <text x="4214.06" y="2527.51"  class="fil1 fnt0">MODA FEMENINA</text>
  </g>
 </g>
</svg>
